<svg width="135" height="121" viewBox="0 0 135 121" fill="none" xmlns="http://www.w3.org/2000/svg">
<path d="M67.5 121C50.9625 117.37 0 88.935 0 37.8125C-3.68934e-08 29.8763 2.4764 22.1413 7.07842 15.7031C11.6804 9.26498 18.1748 4.45005 25.6415 1.94041C33.1082 -0.569228 41.1687 -0.646356 48.6813 1.71996C56.1939 4.08627 62.7776 8.77606 67.5 15.125C72.2224 8.77606 78.8061 4.08627 86.3187 1.71996C93.8313 -0.646356 101.892 -0.569228 109.359 1.94041C116.825 4.45005 123.32 9.26498 127.922 15.7031C132.524 22.1413 135 29.8763 135 37.8125C135 88.935 84.0375 117.37 67.5 121ZM67.5 105.875C90.9 98.8419 120 69.5372 120 37.8125C120 31.7954 117.629 26.0247 113.41 21.77C109.19 17.5153 103.467 15.125 97.5 15.125C87.7125 15.125 77.715 21.4246 67.5 34.0313C57.285 21.4246 47.2875 15.125 37.5 15.125C31.5326 15.125 25.8097 17.5153 21.5901 21.77C17.3705 26.0247 15 31.7954 15 37.8125C15 69.5372 44.1 98.8419 67.5 105.875Z" fill="url(#paint0_linear_340_18)"/>
<path d="M67 112C51.565 108.64 4 82.32 4 35C4 27.6541 6.31131 20.4944 10.6065 14.5351C14.9017 8.57585 20.9631 4.11906 27.932 1.79609C34.9009 -0.526888 42.4241 -0.59828 49.4359 1.59203C56.4476 3.78233 62.5925 8.12329 67 14C71.4075 8.12329 77.5524 3.78233 84.5641 1.59203C91.5759 -0.59828 99.0991 -0.526888 106.068 1.79609C113.037 4.11906 119.098 8.57585 123.393 14.5351C127.689 20.4944 130 27.6541 130 35C130 82.32 82.435 108.64 67 112ZM67 98C88.84 91.49 116 64.365 116 35C116 29.4305 113.788 24.089 109.849 20.1508C105.911 16.2125 100.57 14 95 14C85.865 14 76.534 19.831 67 31.5C57.466 19.831 48.135 14 39 14C33.4305 14 28.089 16.2125 24.1508 20.1508C20.2125 24.089 18 29.4305 18 35C18 64.365 45.16 91.49 67 98Z" fill="url(#paint1_linear_340_18)"/>
<path d="M67 106C53.525 103.21 12 81.355 12 42.0625C12 35.9628 14.0178 30.0177 17.7676 25.0694C21.5174 20.121 26.8091 16.4203 32.893 14.4914C38.977 12.5625 45.5449 12.5032 51.6662 14.322C57.7876 16.1407 63.1522 19.7452 67 24.625C70.8478 19.7452 76.2124 16.1407 82.3338 14.322C88.4551 12.5032 95.023 12.5625 101.107 14.4914C107.191 16.4203 112.483 20.121 116.232 25.0694C119.982 30.0177 122 35.9628 122 42.0625C122 81.355 80.475 103.21 67 106ZM67 94.375C86.0667 88.9694 109.778 66.4459 109.778 42.0625C109.778 37.4378 107.846 33.0025 104.408 29.7323C100.97 26.4622 96.3068 24.625 91.4445 24.625C83.4694 24.625 75.3233 29.4668 67 39.1563C58.6767 29.4668 50.5306 24.625 42.5556 24.625C37.6933 24.625 33.0301 26.4622 29.5919 29.7323C26.1538 33.0025 24.2222 37.4378 24.2222 42.0625C24.2222 66.4459 47.9333 88.9694 67 94.375Z" fill="url(#paint2_linear_340_18)"/>
<defs>
<linearGradient id="paint0_linear_340_18" x1="-24.4336" y1="60.5" x2="151.875" y2="60.5" gradientUnits="userSpaceOnUse">
<stop stop-color="#F3458A"/>
<stop offset="1" stop-color="#FF0066"/>
</linearGradient>
<linearGradient id="paint1_linear_340_18" x1="-18.8047" y1="56" x2="145.75" y2="56" gradientUnits="userSpaceOnUse">
<stop stop-color="#F3458A"/>
<stop offset="1" stop-color="#FF0066"/>
</linearGradient>
<linearGradient id="paint2_linear_340_18" x1="-7.90885" y1="59.5" x2="135.75" y2="59.5" gradientUnits="userSpaceOnUse">
<stop stop-color="#F3458A"/>
<stop offset="1" stop-color="#FF0066"/>
</linearGradient>
</defs>
</svg>
